<svg width="240" height="720" viewBox="0 0 240 720" fill="none" xmlns="http://www.w3.org/2000/svg">
<g clip-path="url(#clip0_62_16581)">
<path d="M120.037 239.964C53.7829 239.964 0.0732316 186.254 0.0732374 120L120.037 120L120.037 239.964Z" fill="#45B5BC"/>
<path d="M240 479.856C240 546.11 186.29 599.82 120.036 599.82L120.036 479.856L240 479.856Z" fill="#0A5E9C"/>
<circle cx="180.018" cy="179.982" r="59.9819" transform="rotate(90 180.018 179.982)" fill="#E24D0E"/>
<path fill-rule="evenodd" clip-rule="evenodd" d="M120.037 419.891L120.037 359.891L60.0371 359.891L0.0371094 359.891L0.0371068 419.891L0.0371041 479.891L60.0371 479.891L120.037 479.891L120.037 419.891ZM120.037 419.891C120.037 453.029 93.1742 479.891 60.0371 479.891C26.9 479.891 0.0371053 453.029 0.0371068 419.891C0.0371082 386.754 26.9 359.891 60.0371 359.891C93.1742 359.891 120.037 386.754 120.037 419.891Z" fill="#EBA5B8"/>
<path fill-rule="evenodd" clip-rule="evenodd" d="M0.0722656 312.631V287.175L47.3195 239.928H72.7754L0.0722656 312.631ZM12.8003 359.892H0.0722656V347.164L107.308 239.928H120.036V252.656L12.8003 359.892ZM72.7891 359.892H47.3332L120.036 287.189V312.645L72.7891 359.892ZM120.036 347.177V359.892H107.322L120.036 347.177ZM12.7866 239.928L0.0722656 252.642V239.928H12.7866Z" fill="#674634"/>
<g clip-path="url(#clip1_62_16581)">
<circle cx="233.337" cy="246.592" r="4.13793" transform="rotate(90 233.337 246.592)" fill="#58AE75"/>
<circle cx="233.347" cy="259.875" r="4.28191" transform="rotate(90 233.347 259.875)" fill="#58AE75"/>
<circle cx="233.347" cy="273.191" r="4.28191" transform="rotate(90 233.347 273.191)" fill="#58AE75"/>
<circle cx="233.347" cy="286.507" r="4.28191" transform="rotate(90 233.347 286.507)" fill="#58AE75"/>
<circle cx="233.347" cy="299.823" r="4.28191" transform="rotate(90 233.347 299.823)" fill="#58AE75"/>
<circle cx="233.347" cy="313.139" r="4.28191" transform="rotate(90 233.347 313.139)" fill="#58AE75"/>
<circle cx="233.347" cy="326.455" r="4.28191" transform="rotate(90 233.347 326.455)" fill="#58AE75"/>
<circle cx="233.347" cy="339.771" r="4.28191" transform="rotate(90 233.347 339.771)" fill="#58AE75"/>
<circle cx="233.347" cy="353.087" r="4.28191" transform="rotate(90 233.347 353.087)" fill="#58AE75"/>
<circle cx="220.031" cy="246.579" r="4.28191" transform="rotate(90 220.031 246.579)" fill="#58AE75"/>
<circle cx="220.031" cy="259.895" r="4.28191" transform="rotate(90 220.031 259.895)" fill="#58AE75"/>
<circle cx="220.031" cy="273.211" r="4.28191" transform="rotate(90 220.031 273.211)" fill="#58AE75"/>
<circle cx="220.031" cy="286.527" r="4.28191" transform="rotate(90 220.031 286.527)" fill="#58AE75"/>
<circle cx="220.031" cy="299.843" r="4.28191" transform="rotate(90 220.031 299.843)" fill="#58AE75"/>
<circle cx="220.031" cy="313.159" r="4.28191" transform="rotate(90 220.031 313.159)" fill="#58AE75"/>
<circle cx="220.031" cy="326.475" r="4.28191" transform="rotate(90 220.031 326.475)" fill="#58AE75"/>
<circle cx="220.031" cy="339.791" r="4.28191" transform="rotate(90 220.031 339.791)" fill="#58AE75"/>
<circle cx="220.031" cy="353.107" r="4.28191" transform="rotate(90 220.031 353.107)" fill="#58AE75"/>
<circle cx="206.714" cy="246.579" r="4.28191" transform="rotate(90 206.714 246.579)" fill="#58AE75"/>
<circle cx="206.714" cy="259.895" r="4.28191" transform="rotate(90 206.714 259.895)" fill="#58AE75"/>
<circle cx="206.714" cy="273.211" r="4.28191" transform="rotate(90 206.714 273.211)" fill="#58AE75"/>
<circle cx="206.714" cy="286.527" r="4.28191" transform="rotate(90 206.714 286.527)" fill="#58AE75"/>
<circle cx="206.714" cy="299.843" r="4.28191" transform="rotate(90 206.714 299.843)" fill="#58AE75"/>
<circle cx="206.714" cy="313.159" r="4.28191" transform="rotate(90 206.714 313.159)" fill="#58AE75"/>
<circle cx="206.714" cy="326.475" r="4.28191" transform="rotate(90 206.714 326.475)" fill="#58AE75"/>
<circle cx="206.714" cy="339.791" r="4.28191" transform="rotate(90 206.714 339.791)" fill="#58AE75"/>
<circle cx="206.714" cy="353.107" r="4.28191" transform="rotate(90 206.714 353.107)" fill="#58AE75"/>
<circle cx="193.4" cy="246.579" r="4.28191" transform="rotate(90 193.4 246.579)" fill="#58AE75"/>
<circle cx="193.4" cy="259.895" r="4.28191" transform="rotate(90 193.4 259.895)" fill="#58AE75"/>
<circle cx="193.4" cy="273.211" r="4.28191" transform="rotate(90 193.4 273.211)" fill="#58AE75"/>
<circle cx="193.4" cy="286.527" r="4.28191" transform="rotate(90 193.4 286.527)" fill="#58AE75"/>
<circle cx="193.4" cy="299.843" r="4.28191" transform="rotate(90 193.4 299.843)" fill="#58AE75"/>
<circle cx="193.4" cy="313.159" r="4.28191" transform="rotate(90 193.4 313.159)" fill="#58AE75"/>
<circle cx="193.4" cy="326.475" r="4.28191" transform="rotate(90 193.4 326.475)" fill="#58AE75"/>
<circle cx="193.4" cy="339.791" r="4.28191" transform="rotate(90 193.4 339.791)" fill="#58AE75"/>
<circle cx="193.4" cy="353.107" r="4.28191" transform="rotate(90 193.4 353.107)" fill="#58AE75"/>
<circle cx="180.083" cy="246.579" r="4.28191" transform="rotate(90 180.083 246.579)" fill="#58AE75"/>
<circle cx="180.083" cy="259.895" r="4.28191" transform="rotate(90 180.083 259.895)" fill="#58AE75"/>
<circle cx="180.083" cy="273.211" r="4.28191" transform="rotate(90 180.083 273.211)" fill="#58AE75"/>
<circle cx="180.083" cy="286.527" r="4.28191" transform="rotate(90 180.083 286.527)" fill="#58AE75"/>
<circle cx="180.083" cy="299.843" r="4.28191" transform="rotate(90 180.083 299.843)" fill="#58AE75"/>
<circle cx="180.083" cy="313.159" r="4.28191" transform="rotate(90 180.083 313.159)" fill="#58AE75"/>
<circle cx="180.083" cy="326.475" r="4.28191" transform="rotate(90 180.083 326.475)" fill="#58AE75"/>
<circle cx="180.083" cy="339.791" r="4.28191" transform="rotate(90 180.083 339.791)" fill="#58AE75"/>
<circle cx="180.083" cy="353.107" r="4.28191" transform="rotate(90 180.083 353.107)" fill="#58AE75"/>
<circle cx="166.767" cy="246.579" r="4.28191" transform="rotate(90 166.767 246.579)" fill="#58AE75"/>
<circle cx="166.767" cy="259.895" r="4.28191" transform="rotate(90 166.767 259.895)" fill="#58AE75"/>
<circle cx="166.767" cy="273.211" r="4.28191" transform="rotate(90 166.767 273.211)" fill="#58AE75"/>
<circle cx="166.767" cy="286.527" r="4.28191" transform="rotate(90 166.767 286.527)" fill="#58AE75"/>
<circle cx="166.767" cy="299.843" r="4.28191" transform="rotate(90 166.767 299.843)" fill="#58AE75"/>
<circle cx="166.767" cy="313.159" r="4.28191" transform="rotate(90 166.767 313.159)" fill="#58AE75"/>
<circle cx="166.767" cy="326.475" r="4.28191" transform="rotate(90 166.767 326.475)" fill="#58AE75"/>
<circle cx="166.767" cy="339.791" r="4.28191" transform="rotate(90 166.767 339.791)" fill="#58AE75"/>
<circle cx="166.767" cy="353.107" r="4.28191" transform="rotate(90 166.767 353.107)" fill="#58AE75"/>
<circle cx="153.451" cy="246.579" r="4.28191" transform="rotate(90 153.451 246.579)" fill="#58AE75"/>
<circle cx="153.451" cy="259.895" r="4.28191" transform="rotate(90 153.451 259.895)" fill="#58AE75"/>
<circle cx="153.451" cy="273.211" r="4.28191" transform="rotate(90 153.451 273.211)" fill="#58AE75"/>
<circle cx="153.451" cy="286.527" r="4.28191" transform="rotate(90 153.451 286.527)" fill="#58AE75"/>
<circle cx="153.451" cy="299.843" r="4.28191" transform="rotate(90 153.451 299.843)" fill="#58AE75"/>
<circle cx="153.451" cy="313.159" r="4.28191" transform="rotate(90 153.451 313.159)" fill="#58AE75"/>
<circle cx="153.451" cy="326.475" r="4.28191" transform="rotate(90 153.451 326.475)" fill="#58AE75"/>
<circle cx="153.451" cy="339.791" r="4.28191" transform="rotate(90 153.451 339.791)" fill="#58AE75"/>
<circle cx="153.451" cy="353.107" r="4.28191" transform="rotate(90 153.451 353.107)" fill="#58AE75"/>
<circle cx="140.134" cy="246.579" r="4.28191" transform="rotate(90 140.134 246.579)" fill="#58AE75"/>
<circle cx="140.134" cy="259.895" r="4.28191" transform="rotate(90 140.134 259.895)" fill="#58AE75"/>
<circle cx="140.134" cy="273.211" r="4.28191" transform="rotate(90 140.134 273.211)" fill="#58AE75"/>
<circle cx="140.134" cy="286.527" r="4.28191" transform="rotate(90 140.134 286.527)" fill="#58AE75"/>
<circle cx="140.134" cy="299.843" r="4.28191" transform="rotate(90 140.134 299.843)" fill="#58AE75"/>
<circle cx="140.134" cy="313.159" r="4.28191" transform="rotate(90 140.134 313.159)" fill="#58AE75"/>
<circle cx="140.134" cy="326.475" r="4.28191" transform="rotate(90 140.134 326.475)" fill="#58AE75"/>
<circle cx="140.134" cy="339.791" r="4.28191" transform="rotate(90 140.134 339.791)" fill="#58AE75"/>
<circle cx="140.134" cy="353.107" r="4.28191" transform="rotate(90 140.134 353.107)" fill="#58AE75"/>
<circle cx="126.82" cy="246.579" r="4.28191" transform="rotate(90 126.82 246.579)" fill="#58AE75"/>
<circle cx="126.82" cy="259.895" r="4.28191" transform="rotate(90 126.82 259.895)" fill="#58AE75"/>
<circle cx="126.82" cy="273.211" r="4.28191" transform="rotate(90 126.82 273.211)" fill="#58AE75"/>
<circle cx="126.82" cy="286.527" r="4.28191" transform="rotate(90 126.82 286.527)" fill="#58AE75"/>
<circle cx="126.82" cy="299.843" r="4.28191" transform="rotate(90 126.82 299.843)" fill="#58AE75"/>
<circle cx="126.82" cy="313.159" r="4.28191" transform="rotate(90 126.82 313.159)" fill="#58AE75"/>
<circle cx="126.82" cy="326.475" r="4.28191" transform="rotate(90 126.82 326.475)" fill="#58AE75"/>
<circle cx="126.82" cy="339.791" r="4.28191" transform="rotate(90 126.82 339.791)" fill="#58AE75"/>
<circle cx="126.82" cy="353.107" r="4.28191" transform="rotate(90 126.82 353.107)" fill="#58AE75"/>
</g>
<path d="M119.793 359.892L240 359.892L240 480.099C240 413.711 186.181 359.892 119.793 359.892Z" fill="#F2C202"/>
<path d="M179.896 480.099C179.896 446.904 152.987 419.995 119.793 419.995L119.793 480.099L179.896 480.099Z" fill="#F2C202"/>
<g clip-path="url(#clip2_62_16581)">
<path fill-rule="evenodd" clip-rule="evenodd" d="M120.037 599.825L120.037 584.825L105.041 584.825L105.041 569.83L90.0459 569.83L90.0459 554.834L75.0506 554.834L75.0506 539.839L60.0547 539.839L60.0547 524.844L45.0594 524.844L45.0594 509.847L30.0641 509.847L30.0641 494.852L15.0687 494.852L15.0687 479.857L0.0687485 479.857L0.0687478 494.852L0.0687478 494.857L0.0687472 509.847L0.0687472 509.852L0.0687465 524.844L0.0687465 524.847L0.0687459 539.839L0.0687459 539.844L0.0687452 554.834L0.0687452 554.839L0.0687445 569.83L0.0687445 569.834L0.0687439 584.825L0.0687439 584.83L0.0687432 599.825L15.0641 599.825L15.0641 599.853L30.0641 599.853L30.0641 599.847L45.0594 599.847L45.0594 599.843L60.0547 599.843L60.0547 599.839L75.0506 599.839L75.0506 599.834L90.0459 599.834L90.0459 599.83L105.041 599.83L105.041 599.825L120.037 599.825ZM90.0412 584.833L90.0412 584.834L75.0506 584.834L75.0506 584.833L90.0412 584.833ZM30.0594 584.852L30.0594 584.853L15.0687 584.853L15.0687 584.852L30.0594 584.852ZM60.0506 554.844L60.0506 554.843L45.0594 554.843L45.0594 554.844L60.0506 554.844ZM30.0641 554.847L45.0547 554.847L45.0547 554.848L30.0641 554.848L30.0641 554.847Z" fill="#895698"/>
</g>
<path d="M120.037 599.819L0.0732374 599.819L120.037 719.783L120.037 599.819Z" fill="#E24D0E"/>
<path fill-rule="evenodd" clip-rule="evenodd" d="M240 119.963C239.979 53.7185 186.281 0.0210789 120.037 -5.24376e-06L120.037 3.99879C184.073 4.01987 235.98 55.927 236.001 119.963L240 119.963ZM228.128 119.963C228.107 60.2748 179.725 11.8923 120.037 11.8711L120.037 15.8699C177.516 15.8911 224.108 62.4833 224.13 119.963L228.128 119.963ZM216.257 119.963C216.236 66.8315 173.168 23.7644 120.037 23.7434L120.037 27.7422C170.96 27.7632 212.237 69.04 212.258 119.963L216.257 119.963ZM204.392 119.963C204.37 73.3845 166.615 35.6296 120.037 35.6086L120.037 39.6074C164.407 39.6284 200.372 75.593 200.393 119.963L204.392 119.963ZM192.52 119.963C192.498 79.941 160.059 47.5012 120.037 47.4797L120.037 51.4785C157.85 51.5 188.5 82.1495 188.521 119.963L192.52 119.963ZM180.655 119.963C180.634 86.4938 153.506 59.366 120.037 59.3449L120.037 63.3437C151.297 63.3648 176.635 88.7023 176.656 119.963L180.655 119.963ZM168.784 119.963C168.763 93.05 146.95 71.237 120.037 71.216L120.037 75.2148C144.741 75.2358 164.764 95.2584 164.785 119.963L168.784 119.963ZM156.912 119.963C156.891 99.6063 140.393 83.1082 120.037 83.0871L120.037 87.0859C138.185 87.107 152.892 101.815 152.913 119.963L156.912 119.963ZM145.047 119.963C145.025 106.16 133.84 94.9746 120.037 94.9535L120.037 98.9523C131.631 98.9734 141.027 108.368 141.048 119.963L145.047 119.963ZM133.175 119.963C133.154 112.716 127.283 106.846 120.037 106.825L120.037 110.823C125.075 110.845 129.155 114.925 129.177 119.963L133.175 119.963Z" fill="#0A5E9C"/>
</g>
<defs>
<clipPath id="clip0_62_16581">
<rect width="720" height="240" fill="white" transform="translate(240) rotate(90)"/>
</clipPath>
<clipPath id="clip1_62_16581">
<rect width="119.964" height="119.964" fill="white" transform="translate(240 239.927) rotate(90)"/>
</clipPath>
<clipPath id="clip2_62_16581">
<rect width="119.964" height="119.964" fill="white" transform="translate(120.037 479.856) rotate(90)"/>
</clipPath>
</defs>
</svg>
