<svg width="135" height="35" viewBox="0 0 135 35" fill="none" xmlns="http://www.w3.org/2000/svg">
	<path d="M0 0.296965H4.34842L7.8908 6.04537L11.4332 0.296965H15.7816V15.1452H11.6877V6.61809L7.8908 12.4301H7.80595L4.03024 6.66051V15.1452H0V0.296965Z" fill="#231E1B" />
	<path d="M18.4153 0.296965H30.3576V3.79692H22.488V6.04537H29.6152V9.29078H22.488V11.6453H30.4636V15.1452H18.4153V0.296965Z" fill="#231E1B" />
	<path d="M39.7118 15.4422C38.6512 15.4422 37.6543 15.2513 36.721 14.8695C35.7876 14.4877 34.9745 13.9574 34.2816 13.2786C33.6028 12.5857 33.0584 11.7726 32.6483 10.8392C32.2523 9.89178 32.0544 8.86654 32.0544 7.76353V7.7211C32.0544 6.64637 32.2523 5.64234 32.6483 4.70902C33.0443 3.76156 33.5887 2.94137 34.2816 2.24845C34.9745 1.54139 35.7947 0.989885 36.7422 0.593931C37.7038 0.197977 38.7502 0 39.8815 0C40.6452 0 41.3381 0.0777769 41.9603 0.233331C42.5825 0.374743 43.1481 0.586861 43.6572 0.869685C44.1805 1.13837 44.6471 1.46362 45.0572 1.84543C45.4814 2.22724 45.8562 2.64441 46.1814 3.09693L43.0845 5.49386C42.6603 4.95649 42.1936 4.53226 41.6845 4.22115C41.1754 3.91005 40.5603 3.75449 39.8391 3.75449C39.3159 3.75449 38.8351 3.86055 38.3967 4.07267C37.9725 4.27065 37.6048 4.5464 37.2937 4.89993C36.9826 5.25346 36.7351 5.67063 36.5513 6.15143C36.3816 6.63223 36.2967 7.14131 36.2967 7.67868V7.7211C36.2967 8.27261 36.3816 8.79583 36.5513 9.29078C36.7351 9.77158 36.9826 10.1887 37.2937 10.5423C37.6048 10.8958 37.9725 11.1786 38.3967 11.3907C38.8351 11.5887 39.3159 11.6877 39.8391 11.6877C40.2209 11.6877 40.5674 11.6453 40.8785 11.5604C41.2037 11.4756 41.4936 11.3554 41.7482 11.1998C42.0168 11.0301 42.2643 10.8392 42.4906 10.6271C42.731 10.4009 42.9643 10.1534 43.1906 9.88471L46.2875 12.0907C45.934 12.5715 45.5451 13.017 45.1208 13.4271C44.7108 13.8372 44.237 14.1907 43.6997 14.4877C43.1764 14.7846 42.5825 15.018 41.9179 15.1877C41.2674 15.3574 40.532 15.4422 39.7118 15.4422Z" fill="#231E1B" />
	<path d="M48.058 0.296965H52.1731V5.85446H57.4549V0.296965H61.5699V15.1452H57.4549V9.50289H52.1731V15.1452H48.058V0.296965Z" fill="#231E1B" />
	<path d="M72.934 9.29078L71.2795 5.06962L69.6038 9.29078H72.934ZM69.328 0.190906H73.2946L79.6157 15.1452H75.2037L74.1219 12.4938H68.3947L67.3341 15.1452H63.0069L69.328 0.190906Z" fill="#231E1B" />
	<path d="M81.0565 0.296965H84.8958L91.0048 8.14534V0.296965H95.0775V15.1452H91.4715L85.1291 6.9999V15.1452H81.0565V0.296965Z" fill="#231E1B" />
	<path d="M97.7959 0.296965H101.932V15.1452H97.7959V0.296965Z" fill="#231E1B" />
	<path d="M110.484 15.3998C109.154 15.3998 107.889 15.1947 106.687 14.7846C105.499 14.3745 104.445 13.7594 103.526 12.9392L105.817 10.2029C107.302 11.3907 108.907 11.9847 110.632 11.9847C111.184 11.9847 111.601 11.8998 111.884 11.7301C112.181 11.5463 112.329 11.2918 112.329 10.9665V10.9241C112.329 10.7685 112.294 10.6342 112.223 10.5211C112.152 10.3938 112.018 10.2736 111.82 10.1605C111.636 10.0473 111.382 9.94127 111.056 9.84228C110.745 9.72915 110.335 9.61602 109.826 9.50289C109.034 9.31906 108.299 9.12108 107.62 8.90896C106.941 8.6827 106.347 8.39988 105.838 8.06049C105.343 7.70696 104.947 7.27565 104.65 6.76657C104.368 6.24335 104.226 5.59992 104.226 4.83629V4.79387C104.226 4.10095 104.354 3.4646 104.608 2.88481C104.877 2.30502 105.259 1.803 105.753 1.37877C106.263 0.954532 106.871 0.629284 107.578 0.403024C108.285 0.162624 109.084 0.0424244 109.975 0.0424244C111.247 0.0424244 112.379 0.212119 113.369 0.551508C114.373 0.876755 115.278 1.36463 116.084 2.01512L114.026 4.92114C113.347 4.44034 112.647 4.07974 111.926 3.83934C111.219 3.5848 110.533 3.45753 109.869 3.45753C109.374 3.45753 108.999 3.54944 108.744 3.73328C108.504 3.91712 108.384 4.14337 108.384 4.41206V4.45448C108.384 4.62418 108.419 4.77266 108.49 4.89993C108.575 5.0272 108.709 5.1474 108.893 5.26053C109.091 5.35952 109.352 5.46558 109.678 5.57871C110.017 5.6777 110.441 5.78376 110.95 5.89689C111.799 6.08072 112.562 6.29991 113.241 6.55445C113.934 6.79485 114.521 7.09182 115.002 7.44535C115.483 7.79888 115.85 8.23018 116.105 8.73927C116.359 9.23421 116.487 9.82814 116.487 10.5211V10.5635C116.487 11.3271 116.338 12.0059 116.041 12.5998C115.758 13.1938 115.355 13.7028 114.832 14.1271C114.309 14.5372 113.68 14.8553 112.944 15.0816C112.209 15.2937 111.389 15.3998 110.484 15.3998Z" fill="#231E1B" />
	<path d="M118.488 0.296965H122.836L126.379 6.04537L129.921 0.296965H134.269V15.1452H130.176V6.61809L126.379 12.4301H126.294L122.518 6.66051V15.1452H118.488V0.296965Z" fill="#231E1B" />
	<path d="M0 19.6967H4.1363V34.545H0V19.6967Z" fill="#231E1B" />
	<path d="M6.85456 19.6967H10.6939L16.8029 27.5451V19.6967H20.8756V34.545H17.2696L10.9272 26.3997V34.545H6.85456V19.6967Z" fill="#231E1B" />
	<path d="M29.3424 34.7996C28.0131 34.7996 26.7475 34.5945 25.5455 34.1844C24.3576 33.7743 23.3041 33.1592 22.3849 32.339L24.6758 29.6027C26.1606 30.7905 27.7657 31.3845 29.4909 31.3845C30.0424 31.3845 30.4596 31.2996 30.7424 31.1299C31.0393 30.9461 31.1878 30.6915 31.1878 30.3663V30.3239C31.1878 30.1683 31.1525 30.034 31.0818 29.9208C31.0111 29.7936 30.8767 29.6734 30.6787 29.5602C30.4949 29.4471 30.2404 29.341 29.9151 29.2421C29.604 29.1289 29.1939 29.0158 28.6848 28.9027C27.8929 28.7188 27.1576 28.5209 26.4788 28.3087C25.8 28.0825 25.2061 27.7997 24.697 27.4603C24.2021 27.1067 23.8061 26.6754 23.5092 26.1663C23.2263 25.6431 23.0849 24.9997 23.0849 24.2361V24.1936C23.0849 23.5007 23.2122 22.8644 23.4667 22.2846C23.7354 21.7048 24.1172 21.2028 24.6122 20.7785C25.1213 20.3543 25.7293 20.0291 26.4364 19.8028C27.1434 19.5624 27.9424 19.4422 28.8333 19.4422C30.106 19.4422 31.2373 19.6119 32.2272 19.9513C33.2312 20.2765 34.1363 20.7644 34.9423 21.4149L32.8848 24.3209C32.206 23.8401 31.506 23.4795 30.7848 23.2391C30.0777 22.9846 29.3919 22.8573 28.7273 22.8573C28.2323 22.8573 27.8576 22.9492 27.603 23.1331C27.3626 23.3169 27.2424 23.5431 27.2424 23.8118V23.8543C27.2424 24.024 27.2778 24.1724 27.3485 24.2997C27.4333 24.427 27.5677 24.5472 27.7515 24.6603C27.9495 24.7593 28.2111 24.8654 28.5364 24.9785C28.8757 25.0775 29.3 25.1835 29.8091 25.2967C30.6575 25.4805 31.4212 25.6997 32.0999 25.9542C32.7929 26.1946 33.3797 26.4916 33.8605 26.8451C34.3413 27.1987 34.709 27.63 34.9635 28.139C35.2181 28.634 35.3453 29.2279 35.3453 29.9208V29.9633C35.3453 30.7269 35.1969 31.4057 34.8999 31.9996C34.6171 32.5935 34.2141 33.1026 33.6908 33.5268C33.1676 33.9369 32.5383 34.2551 31.803 34.4814C31.0676 34.6935 30.2474 34.7996 29.3424 34.7996Z" fill="#231E1B" />
	<path d="M40.9738 23.3027H36.5193V19.6967H49.5433V23.3027H45.0889V34.545H40.9738V23.3027Z" fill="#231E1B" />
	<path d="M51.4345 19.6967H55.5708V34.545H51.4345V19.6967Z" fill="#231E1B" />
	<path d="M61.9163 23.3027H57.4618V19.6967H70.4859V23.3027H66.0314V34.545H61.9163V23.3027Z" fill="#231E1B" />
	<path d="M78.9739 34.8208C77.9133 34.8208 76.9588 34.6864 76.1103 34.4177C75.2618 34.1491 74.5406 33.739 73.9467 33.1875C73.3528 32.6218 72.8932 31.9147 72.5679 31.0663C72.2568 30.2037 72.1013 29.1926 72.1013 28.033V19.6967H76.28V27.9481C76.28 29.0229 76.5275 29.8218 77.0224 30.3451C77.5174 30.8542 78.182 31.1087 79.0163 31.1087C79.8507 31.1087 80.5153 30.8612 81.0102 30.3663C81.5052 29.8713 81.7527 29.1006 81.7527 28.0542V19.6967H85.9314V27.9269C85.9314 29.1289 85.7617 30.1683 85.4223 31.0451C85.097 31.9077 84.6304 32.6218 84.0223 33.1875C83.4284 33.739 82.7001 34.1491 81.8375 34.4177C80.989 34.6864 80.0345 34.8208 78.9739 34.8208Z" fill="#231E1B" />
	<path d="M91.994 23.3027H87.5395V19.6967H100.564V23.3027H96.1091V34.545H91.994V23.3027Z" fill="#231E1B" />
	<path d="M102.37 19.6967H114.312V23.1967H106.443V25.4451H113.57V28.6906H106.443V31.0451H114.418V34.545H102.37V19.6967Z" fill="#231E1B" />
</svg>
