<svg width="449" height="1322" viewBox="0 0 449 1322" fill="none" xmlns="http://www.w3.org/2000/svg">
<g opacity="0.5" clip-path="url(#clip0_62_20318)">
<path fill-rule="evenodd" clip-rule="evenodd" d="M7.3404 219.874C6.32384 219.874 5.4991 219.041 5.50788 218.025C6.53985 98.5566 103.192 1.90568 222.659 0.878975C223.676 0.870239 224.509 1.69496 224.509 2.71149V6.38962C224.509 7.40568 223.676 8.22866 222.66 8.23769C107.256 9.26329 13.8974 102.621 12.8666 218.026C12.8575 219.042 12.0346 219.874 11.0185 219.874H7.3404ZM29.0109 219.874C27.9943 219.874 27.1695 219.041 27.1792 218.025C28.2088 110.524 115.16 23.5741 222.659 22.5485C223.676 22.5388 224.509 23.3637 224.509 24.3802V28.0583C224.509 29.0744 223.677 29.8973 222.661 29.9073C119.224 30.9316 35.5662 114.589 34.538 218.026C34.5279 219.042 33.705 219.874 32.689 219.874H29.0109ZM50.6814 219.874C49.6648 219.874 48.8399 219.042 48.8508 218.025C49.8776 122.492 127.127 45.2423 222.659 44.2183C223.676 44.2074 224.509 45.0324 224.509 46.0489V49.7271C224.509 50.7431 223.677 51.5658 222.661 51.5772C131.192 52.5997 57.2349 126.556 56.2097 218.027C56.1983 219.043 55.3755 219.874 54.3596 219.874H50.6814ZM72.3403 219.874C71.3236 219.874 70.4985 219.042 70.511 218.025C71.5348 134.454 139.089 66.8993 222.66 65.8776C223.676 65.8652 224.509 66.6903 224.509 67.7069V71.3851C224.509 72.401 223.677 73.2236 222.662 73.2366C143.154 74.2564 78.8919 138.518 77.87 218.027C77.8569 219.043 77.0344 219.874 76.0184 219.874H72.3403ZM94.0109 219.874C92.9942 219.874 92.1689 219.042 92.1834 218.026C93.2051 146.423 151.058 88.5707 222.66 87.5518C223.677 87.5373 224.509 88.3626 224.509 89.3793V93.0575C224.509 94.0734 223.678 94.8957 222.662 94.911C155.123 95.9276 100.562 150.488 99.5426 218.028C99.5273 219.044 98.7049 219.874 97.6891 219.874H94.0109ZM115.67 219.874C114.653 219.874 113.827 219.043 113.845 218.026C114.862 158.385 163.02 110.227 222.66 109.212C223.677 109.195 224.509 110.021 224.509 111.037V114.716C224.509 115.731 223.679 116.553 222.663 116.572C167.085 117.583 122.218 162.45 121.204 218.029C121.186 219.044 120.364 219.874 119.348 219.874H115.67ZM137.339 219.874C136.322 219.874 135.496 219.043 135.518 218.026C136.53 170.354 174.989 131.897 222.661 130.889C223.678 130.867 224.509 131.693 224.509 132.71V136.388C224.509 137.404 223.68 138.225 222.664 138.249C179.054 139.252 143.885 174.419 142.878 218.03C142.855 219.046 142.033 219.874 141.018 219.874H137.339ZM159.01 219.874C157.993 219.874 157.166 219.044 157.194 218.027C158.195 182.323 186.957 153.562 222.662 152.564C223.679 152.535 224.509 153.362 224.509 154.379V158.057C224.509 159.073 223.682 159.893 222.667 159.925C191.022 160.916 165.549 186.388 164.556 218.033C164.524 219.048 163.704 219.874 162.688 219.874H159.01ZM180.67 219.874C179.653 219.874 178.824 219.046 178.867 218.029C179.851 194.289 198.923 175.22 222.664 174.241C223.68 174.199 224.509 175.028 224.509 176.045V179.724C224.509 180.739 223.686 181.557 222.672 181.607C202.989 182.571 187.201 198.356 186.232 218.038C186.182 219.052 185.364 219.874 184.349 219.874H180.67ZM202.343 219.874C201.324 219.874 200.492 219.044 200.573 218.029C201.504 206.26 210.894 196.873 222.663 195.946C223.679 195.866 224.509 196.698 224.509 197.716V201.397C224.509 202.41 223.687 203.222 222.68 203.336C214.964 204.209 208.839 210.332 207.963 218.046C207.849 219.053 207.037 219.874 206.024 219.874H202.343Z" fill="#E8DDD5"/>
<path d="M223.613 440.628C345.532 440.628 444.366 341.793 444.366 219.874H223.613V440.628Z" fill="#E8DDD5"/>
<circle cx="109.49" cy="109.49" r="109.49" transform="matrix(0 1 1 0 4.63281 219.875)" fill="#E8DDD5"/>
<path fill-rule="evenodd" clip-rule="evenodd" d="M445.254 574.414L445.254 527.571L358.311 440.628L311.468 440.628L445.254 574.414ZM421.832 661.381L445.254 661.381L445.254 637.96L247.922 440.628L224.501 440.628L224.501 464.05L421.832 661.381ZM311.443 661.381L358.286 661.381L224.501 527.596L224.501 574.439L311.443 661.381ZM224.501 637.985L224.501 661.381L247.897 661.381L224.501 637.985ZM421.857 440.628L445.254 464.024L445.254 440.628L421.857 440.628Z" fill="#E8DDD5"/>
<g clip-path="url(#clip1_62_20318)">
<circle cx="7.61447" cy="7.61447" r="7.61447" transform="matrix(0 1 1 0 7.51172 444.395)" fill="#E8DDD5"/>
<circle cx="7.87941" cy="7.87941" r="7.87941" transform="matrix(0 1 1 0 7.22656 468.575)" fill="#E8DDD5"/>
<circle cx="7.87941" cy="7.87941" r="7.87941" transform="matrix(0 1 1 0 7.22656 493.079)" fill="#E8DDD5"/>
<circle cx="7.87941" cy="7.87941" r="7.87941" transform="matrix(0 1 1 0 7.22656 517.583)" fill="#E8DDD5"/>
<circle cx="7.87941" cy="7.87941" r="7.87941" transform="matrix(0 1 1 0 7.22656 542.086)" fill="#E8DDD5"/>
<circle cx="7.87941" cy="7.87941" r="7.87941" transform="matrix(0 1 1 0 7.22656 566.59)" fill="#E8DDD5"/>
<circle cx="7.87941" cy="7.87941" r="7.87941" transform="matrix(0 1 1 0 7.22656 591.094)" fill="#E8DDD5"/>
<circle cx="7.87941" cy="7.87941" r="7.87941" transform="matrix(0 1 1 0 7.22656 615.597)" fill="#E8DDD5"/>
<circle cx="7.87941" cy="7.87941" r="7.87941" transform="matrix(0 1 1 0 7.22656 640.101)" fill="#E8DDD5"/>
<circle cx="7.87941" cy="7.87941" r="7.87941" transform="matrix(0 1 1 0 31.7305 444.109)" fill="#E8DDD5"/>
<circle cx="7.87941" cy="7.87941" r="7.87941" transform="matrix(0 1 1 0 31.7305 468.612)" fill="#E8DDD5"/>
<circle cx="7.87941" cy="7.87941" r="7.87941" transform="matrix(0 1 1 0 31.7305 493.116)" fill="#E8DDD5"/>
<circle cx="7.87941" cy="7.87941" r="7.87941" transform="matrix(0 1 1 0 31.7305 517.62)" fill="#E8DDD5"/>
<circle cx="7.87941" cy="7.87941" r="7.87941" transform="matrix(0 1 1 0 31.7305 542.123)" fill="#E8DDD5"/>
<circle cx="7.87941" cy="7.87941" r="7.87941" transform="matrix(0 1 1 0 31.7305 566.627)" fill="#E8DDD5"/>
<circle cx="7.87941" cy="7.87941" r="7.87941" transform="matrix(0 1 1 0 31.7305 591.13)" fill="#E8DDD5"/>
<circle cx="7.87941" cy="7.87941" r="7.87941" transform="matrix(0 1 1 0 31.7305 615.634)" fill="#E8DDD5"/>
<circle cx="7.87941" cy="7.87941" r="7.87941" transform="matrix(0 1 1 0 31.7305 640.137)" fill="#E8DDD5"/>
<circle cx="7.87941" cy="7.87941" r="7.87941" transform="matrix(0 1 1 0 56.2344 444.109)" fill="#E8DDD5"/>
<circle cx="7.87941" cy="7.87941" r="7.87941" transform="matrix(0 1 1 0 56.2344 468.612)" fill="#E8DDD5"/>
<circle cx="7.87941" cy="7.87941" r="7.87941" transform="matrix(0 1 1 0 56.2344 493.116)" fill="#E8DDD5"/>
<circle cx="7.87941" cy="7.87941" r="7.87941" transform="matrix(0 1 1 0 56.2344 517.62)" fill="#E8DDD5"/>
<circle cx="7.87941" cy="7.87941" r="7.87941" transform="matrix(0 1 1 0 56.2344 542.123)" fill="#E8DDD5"/>
<circle cx="7.87941" cy="7.87941" r="7.87941" transform="matrix(0 1 1 0 56.2344 566.627)" fill="#E8DDD5"/>
<circle cx="7.87941" cy="7.87941" r="7.87941" transform="matrix(0 1 1 0 56.2344 591.13)" fill="#E8DDD5"/>
<circle cx="7.87941" cy="7.87941" r="7.87941" transform="matrix(0 1 1 0 56.2344 615.634)" fill="#E8DDD5"/>
<circle cx="7.87941" cy="7.87941" r="7.87941" transform="matrix(0 1 1 0 56.2344 640.137)" fill="#E8DDD5"/>
<circle cx="7.87941" cy="7.87941" r="7.87941" transform="matrix(0 1 1 0 80.7383 444.109)" fill="#E8DDD5"/>
<circle cx="7.87941" cy="7.87941" r="7.87941" transform="matrix(0 1 1 0 80.7383 468.612)" fill="#E8DDD5"/>
<circle cx="7.87941" cy="7.87941" r="7.87941" transform="matrix(0 1 1 0 80.7383 493.116)" fill="#E8DDD5"/>
<circle cx="7.87941" cy="7.87941" r="7.87941" transform="matrix(0 1 1 0 80.7383 517.62)" fill="#E8DDD5"/>
<circle cx="7.87941" cy="7.87941" r="7.87941" transform="matrix(0 1 1 0 80.7383 542.123)" fill="#E8DDD5"/>
<circle cx="7.87941" cy="7.87941" r="7.87941" transform="matrix(0 1 1 0 80.7383 566.627)" fill="#E8DDD5"/>
<circle cx="7.87941" cy="7.87941" r="7.87941" transform="matrix(0 1 1 0 80.7383 591.13)" fill="#E8DDD5"/>
<circle cx="7.87941" cy="7.87941" r="7.87941" transform="matrix(0 1 1 0 80.7383 615.634)" fill="#E8DDD5"/>
<circle cx="7.87941" cy="7.87941" r="7.87941" transform="matrix(0 1 1 0 80.7383 640.137)" fill="#E8DDD5"/>
<circle cx="7.87941" cy="7.87941" r="7.87941" transform="matrix(0 1 1 0 105.242 444.109)" fill="#E8DDD5"/>
<circle cx="7.87941" cy="7.87941" r="7.87941" transform="matrix(0 1 1 0 105.242 468.612)" fill="#E8DDD5"/>
<circle cx="7.87941" cy="7.87941" r="7.87941" transform="matrix(0 1 1 0 105.242 493.116)" fill="#E8DDD5"/>
<circle cx="7.87941" cy="7.87941" r="7.87941" transform="matrix(0 1 1 0 105.242 517.62)" fill="#E8DDD5"/>
<circle cx="7.87941" cy="7.87941" r="7.87941" transform="matrix(0 1 1 0 105.242 542.123)" fill="#E8DDD5"/>
<circle cx="7.87941" cy="7.87941" r="7.87941" transform="matrix(0 1 1 0 105.242 566.627)" fill="#E8DDD5"/>
<circle cx="7.87941" cy="7.87941" r="7.87941" transform="matrix(0 1 1 0 105.242 591.13)" fill="#E8DDD5"/>
<circle cx="7.87941" cy="7.87941" r="7.87941" transform="matrix(0 1 1 0 105.242 615.634)" fill="#E8DDD5"/>
<circle cx="7.87941" cy="7.87941" r="7.87941" transform="matrix(0 1 1 0 105.242 640.137)" fill="#E8DDD5"/>
<circle cx="7.87941" cy="7.87941" r="7.87941" transform="matrix(0 1 1 0 129.746 444.109)" fill="#E8DDD5"/>
<circle cx="7.87941" cy="7.87941" r="7.87941" transform="matrix(0 1 1 0 129.746 468.612)" fill="#E8DDD5"/>
<circle cx="7.87941" cy="7.87941" r="7.87941" transform="matrix(0 1 1 0 129.746 493.116)" fill="#E8DDD5"/>
<circle cx="7.87941" cy="7.87941" r="7.87941" transform="matrix(0 1 1 0 129.746 517.62)" fill="#E8DDD5"/>
<circle cx="7.87941" cy="7.87941" r="7.87941" transform="matrix(0 1 1 0 129.746 542.123)" fill="#E8DDD5"/>
<circle cx="7.87941" cy="7.87941" r="7.87941" transform="matrix(0 1 1 0 129.746 566.627)" fill="#E8DDD5"/>
<circle cx="7.87941" cy="7.87941" r="7.87941" transform="matrix(0 1 1 0 129.746 591.13)" fill="#E8DDD5"/>
<circle cx="7.87941" cy="7.87941" r="7.87941" transform="matrix(0 1 1 0 129.746 615.634)" fill="#E8DDD5"/>
<circle cx="7.87941" cy="7.87941" r="7.87941" transform="matrix(0 1 1 0 129.746 640.137)" fill="#E8DDD5"/>
<circle cx="7.87941" cy="7.87941" r="7.87941" transform="matrix(0 1 1 0 154.25 444.109)" fill="#E8DDD5"/>
<circle cx="7.87941" cy="7.87941" r="7.87941" transform="matrix(0 1 1 0 154.25 468.612)" fill="#E8DDD5"/>
<circle cx="7.87941" cy="7.87941" r="7.87941" transform="matrix(0 1 1 0 154.25 493.116)" fill="#E8DDD5"/>
<circle cx="7.87941" cy="7.87941" r="7.87941" transform="matrix(0 1 1 0 154.25 517.62)" fill="#E8DDD5"/>
<circle cx="7.87941" cy="7.87941" r="7.87941" transform="matrix(0 1 1 0 154.25 542.123)" fill="#E8DDD5"/>
<circle cx="7.87941" cy="7.87941" r="7.87941" transform="matrix(0 1 1 0 154.25 566.627)" fill="#E8DDD5"/>
<circle cx="7.87941" cy="7.87941" r="7.87941" transform="matrix(0 1 1 0 154.25 591.13)" fill="#E8DDD5"/>
<circle cx="7.87941" cy="7.87941" r="7.87941" transform="matrix(0 1 1 0 154.25 615.634)" fill="#E8DDD5"/>
<circle cx="7.87941" cy="7.87941" r="7.87941" transform="matrix(0 1 1 0 154.25 640.137)" fill="#E8DDD5"/>
<circle cx="7.87941" cy="7.87941" r="7.87941" transform="matrix(0 1 1 0 178.75 444.109)" fill="#E8DDD5"/>
<circle cx="7.87941" cy="7.87941" r="7.87941" transform="matrix(0 1 1 0 178.75 468.612)" fill="#E8DDD5"/>
<circle cx="7.87941" cy="7.87941" r="7.87941" transform="matrix(0 1 1 0 178.75 493.116)" fill="#E8DDD5"/>
<circle cx="7.87941" cy="7.87941" r="7.87941" transform="matrix(0 1 1 0 178.75 517.62)" fill="#E8DDD5"/>
<circle cx="7.87941" cy="7.87941" r="7.87941" transform="matrix(0 1 1 0 178.75 542.123)" fill="#E8DDD5"/>
<circle cx="7.87941" cy="7.87941" r="7.87941" transform="matrix(0 1 1 0 178.75 566.627)" fill="#E8DDD5"/>
<circle cx="7.87941" cy="7.87941" r="7.87941" transform="matrix(0 1 1 0 178.75 591.13)" fill="#E8DDD5"/>
<circle cx="7.87941" cy="7.87941" r="7.87941" transform="matrix(0 1 1 0 178.75 615.634)" fill="#E8DDD5"/>
<circle cx="7.87941" cy="7.87941" r="7.87941" transform="matrix(0 1 1 0 178.75 640.137)" fill="#E8DDD5"/>
<circle cx="7.87941" cy="7.87941" r="7.87941" transform="matrix(0 1 1 0 203.254 444.109)" fill="#E8DDD5"/>
<circle cx="7.87941" cy="7.87941" r="7.87941" transform="matrix(0 1 1 0 203.254 468.612)" fill="#E8DDD5"/>
<circle cx="7.87941" cy="7.87941" r="7.87941" transform="matrix(0 1 1 0 203.254 493.116)" fill="#E8DDD5"/>
<circle cx="7.87941" cy="7.87941" r="7.87941" transform="matrix(0 1 1 0 203.254 517.62)" fill="#E8DDD5"/>
<circle cx="7.87941" cy="7.87941" r="7.87941" transform="matrix(0 1 1 0 203.254 542.123)" fill="#E8DDD5"/>
<circle cx="7.87941" cy="7.87941" r="7.87941" transform="matrix(0 1 1 0 203.254 566.627)" fill="#E8DDD5"/>
<circle cx="7.87941" cy="7.87941" r="7.87941" transform="matrix(0 1 1 0 203.254 591.13)" fill="#E8DDD5"/>
<circle cx="7.87941" cy="7.87941" r="7.87941" transform="matrix(0 1 1 0 203.254 615.634)" fill="#E8DDD5"/>
<circle cx="7.87941" cy="7.87941" r="7.87941" transform="matrix(0 1 1 0 203.254 640.137)" fill="#E8DDD5"/>
</g>
<path fill-rule="evenodd" clip-rule="evenodd" d="M224.5 771.789V661.379H334.91H445.32V771.789V882.199H334.91H224.5V771.789ZM224.5 771.789C224.5 832.767 273.932 882.199 334.91 882.199C395.887 882.199 445.32 832.767 445.32 771.789C445.32 710.812 395.887 661.379 334.91 661.379C273.932 661.379 224.5 710.812 224.5 771.789Z" fill="#E8DDD5"/>
<path d="M224.947 661.38H3.74609V882.581C3.74647 760.415 102.782 661.38 224.947 661.38Z" fill="#E8DDD5"/>
<path d="M114.348 882.581C114.348 821.498 163.865 771.98 224.948 771.98V882.581H114.348Z" fill="#E8DDD5"/>
<g clip-path="url(#clip2_62_20318)">
<path fill-rule="evenodd" clip-rule="evenodd" d="M223.613 1102.9V1075.3H251.208V1047.7H278.802V1020.11H306.396V992.513H333.991V964.918H361.585V937.322H389.179V909.731H416.772V882.135H444.375V909.731V909.738V937.322V937.333V964.918V964.925V992.513V992.52V1020.11V1020.12V1047.7V1047.71V1075.3V1075.3V1102.9H416.781V1102.95H389.179V1102.94H361.585V1102.93H333.991V1102.92H306.396V1102.92H278.802V1102.9H251.208V1102.9H223.613ZM278.811 1075.31V1075.31H306.396V1075.31H278.811ZM389.179 1020.13H361.593V1020.13H389.179V1020.13Z" fill="#E8DDD5"/>
</g>
<path d="M4.63281 882.134C4.63281 1003.07 102.673 1101.11 223.612 1101.11L223.612 882.134H4.63281Z" fill="#E8DDD5"/>
<path d="M224.5 1102.89H443.48L224.5 1321.87L224.5 1102.89Z" fill="#E8DDD5"/>
</g>
<defs>
<clipPath id="clip0_62_20318">
<rect width="449" height="1320.99" fill="white" transform="matrix(-1 0 0 1 449 0.878906)"/>
</clipPath>
<clipPath id="clip1_62_20318">
<rect width="220.753" height="220.753" fill="white" transform="matrix(0 1 1 0 3.74609 440.628)"/>
</clipPath>
<clipPath id="clip2_62_20318">
<rect width="220.753" height="220.753" fill="white" transform="matrix(0 1 1 0 223.613 882.134)"/>
</clipPath>
</defs>
</svg>
